HIERARCHY
ROOT Hips
{
	OFFSET -3.958830 18.904000 13.208200
	CHANNELS 6 Xposition Yposition Zposition Zrotation Yrotation Xrotation 
	JOINT LHipJoint
	{
		OFFSET 0.000000 0.000000 0.000000
		CHANNELS 3 Zrotation Yrotation Xrotation
		JOINT LeftUpLeg
		{
			OFFSET 1.800000 -1.400000 0.085000
			CHANNELS 3 Zrotation Yrotation Xrotation
			JOINT LeftLeg
			{
				OFFSET 2.215000 -6.000000 0.000000
				CHANNELS 3 Zrotation Yrotation Xrotation
				JOINT LeftFoot
				{
					OFFSET 2.500000 -6.900000 0.000000
					CHANNELS 3 Zrotation Yrotation Xrotation
					JOINT LeftToeBase
					{
						OFFSET 0.200000 -0.500000 1.950000
						CHANNELS 3 Zrotation Yrotation Xrotation
						End Site
						{
							OFFSET 0.000000 0.000000 0.000000
						}
					}
				}
			}
		}
	}
	JOINT RHipJoint
	{
		OFFSET 0.000000 0.000000 0.000000
		CHANNELS 3 Zrotation Yrotation Xrotation
		JOINT RightUpLeg
		{
			OFFSET -1.800000 -1.400000 0.085000
			CHANNELS 3 Zrotation Yrotation Xrotation
			JOINT RightLeg
			{
				OFFSET -2.215000 -6.000000 0.000000
				CHANNELS 3 Zrotation Yrotation Xrotation
				JOINT RightFoot
				{
					OFFSET -2.500000 -6.900000 0.000000
					CHANNELS 3 Zrotation Yrotation Xrotation
					JOINT RightToeBase
					{
						OFFSET -0.200000 -0.500000 1.950000
						CHANNELS 3 Zrotation Yrotation Xrotation
						End Site
						{
							OFFSET 0.000000 0.000000 0.000000
						}
					}
				}
			}
		}
	}
	JOINT LowerBack
	{
		OFFSET 0.000000 0.000000 0.000000
		CHANNELS 3 Zrotation Yrotation Xrotation
		JOINT Spine
		{
			OFFSET -0.087000 1.940000 -0.288900
			CHANNELS 3 Zrotation Yrotation Xrotation
			JOINT Spine1
			{
				OFFSET 0.000000 1.950000 0.060000
				CHANNELS 3 Zrotation Yrotation Xrotation
				JOINT Neck
				{
					OFFSET 0.000000 0.000000 0.000000
					CHANNELS 3 Zrotation Yrotation Xrotation
					JOINT Neck1
					{
						OFFSET 0.000000 1.600000 0.340000
						CHANNELS 3 Zrotation Yrotation Xrotation
						JOINT Head
						{
							OFFSET 0.000000 1.667000 -0.240000
							CHANNELS 3 Zrotation Yrotation Xrotation
							End Site
							{
								OFFSET 0.000000 0.000000 0.000000
							}
						}
					}
				}
				JOINT LeftShoulder
				{
					OFFSET 0.000000 0.000000 0.000000
					CHANNELS 3 Zrotation Yrotation Xrotation
					JOINT LeftArm
					{
						OFFSET 2.700000 1.550000 -0.730000
						CHANNELS 3 Zrotation Yrotation Xrotation
						JOINT LeftForeArm
						{
							OFFSET 5.450000 0.000000 0.000000
							CHANNELS 3 Zrotation Yrotation Xrotation
							JOINT LeftHand
							{
								OFFSET 3.450000 0.000000 0.000000
								CHANNELS 3 Zrotation Yrotation Xrotation
								JOINT LeftHandIndex1
								{
									OFFSET 0.750000 0.000000 0.000000
									CHANNELS 3 Zrotation Yrotation Xrotation
									End Site
									{
										OFFSET 0.000000 0.000000 0.000000
									}
								}
							}
						}
					}
				}
				JOINT RightShoulder
				{
					OFFSET 0.000000 0.000000 0.000000
					CHANNELS 3 Zrotation Yrotation Xrotation
					JOINT RightArm
					{
						OFFSET -2.700000 1.550000 -0.730000
						CHANNELS 3 Zrotation Yrotation Xrotation
						JOINT RightForeArm
						{
							OFFSET -5.450000 0.000000 0.000000
							CHANNELS 3 Zrotation Yrotation Xrotation
							JOINT RightHand
							{
								OFFSET -3.450000 0.000000 0.000000
								CHANNELS 3 Zrotation Yrotation Xrotation
								JOINT RightHandIndex1
								{
									OFFSET -0.750000 0.000000 0.000000
									CHANNELS 3 Zrotation Yrotation Xrotation
									End Site
									{
										OFFSET 0.000000 0.000000 0.000000
									}
								}
							}
						}
					}
				}
			}
		}
	}
}
MOTION
Frames: 4
Frame Time: 0.016667
-0.062390 17.072790 -1.995900 -3.325676 -28.686769 -14.041007 -14.553011 13.678140 3.047803 21.273999 0.279479 12.316947 3.457548 4.963255 5.361676 -0.105046 6.154630 2.521247 -0.307030 -0.332360 -0.310240 18.469148 -11.570482 3.659902 -5.448905 -2.285843 7.896960 7.544333 -6.045356 3.292507 -0.997844 -4.987307 2.244248 -0.161830 0.792180 0.517560 -4.302521 -0.466539 -7.927799 0.934382 -8.254049 39.054234 -5.314120 -6.276316 -24.453690 -0.824935 -3.679656 -18.616348 -14.415715 16.956704 67.949388 7.913860 10.653120 -3.361410 18.309304 -5.645222 6.149126 13.559308 -15.342844 0.915105 124.172667 17.154639 33.190019 -4.493518 2.937245 0.727050 0.201560 0.282710 0.048080 -16.266947 7.987589 6.848858 -18.999524 17.177862 -2.154783 -125.025056 -12.833769 28.437968 2.687937 -1.388319 -0.379260 0.562420 0.666700 0.155910 
0.018130 17.033330 -2.110940 -3.272750 -28.079110 -23.801526 -14.652816 13.441297 3.129899 23.304496 0.855404 20.423599 4.179767 5.890121 6.358369 0.162958 6.961945 2.225584 -0.201570 -0.209530 -0.202780 18.435345 -11.406241 3.682061 -7.473992 -3.629400 17.131000 7.391745 -7.025152 3.736008 -1.310844 -5.919582 1.917228 -0.118320 0.657490 0.507130 -4.311290 -0.629578 -7.935646 -1.413253 -6.188684 49.919828 -4.269436 -5.686769 -15.423324 -0.556618 -4.499680 -17.124832 -15.262507 16.544017 63.630383 5.549130 10.720080 -9.255300 15.177442 -8.862438 6.265760 15.674346 -6.509076 -2.519570 121.435088 12.267517 20.656855 -4.279915 2.975909 0.781410 0.103400 0.372710 0.047360 -13.683653 12.021408 7.298721 -22.425065 8.161533 -5.518836 -121.861118 -8.184519 16.184157 2.604372 -1.394745 -0.333660 0.550250 0.587530 0.133210 
0.086360 16.993230 -2.193550 -3.097470 -27.841086 -31.344237 -14.913905 13.682951 3.168091 25.134020 1.168287 26.181929 4.811355 6.710620 7.657553 0.419130 7.682573 2.004814 -0.125960 -0.115650 -0.151780 18.270789 -10.763948 3.534469 -8.944686 -4.478214 24.475474 7.307175 -7.709791 4.418612 -1.499121 -6.586192 1.699417 -0.082870 0.585080 0.505070 -3.684255 -2.322456 -7.915033 -4.043946 -3.097303 54.895567 -3.749033 -3.141186 2.428145 0.308562 -5.838288 -14.877945 -16.878399 14.841033 51.774870 1.654160 8.885660 -15.482090 13.075234 -11.252980 6.149190 17.411080 2.330486 -7.567827 119.797875 9.140553 8.626164 -4.344817 3.008440 0.752770 0.054930 0.394280 0.067180 -13.000977 15.759425 7.096993 -25.128824 -4.794583 -9.966255 -118.554260 -4.452769 3.442619 2.707018 -1.520205 -0.280640 0.532040 0.517430 0.149040 
0.114330 16.993760 -2.178760 -3.129786 -27.420661 -31.157635 -15.100410 13.999746 3.073464 24.889043 1.374859 25.466714 4.990020 6.738734 8.476140 0.448605 7.673783 2.045422 -0.106230 -0.086040 -0.174620 18.150228 -10.393096 3.352679 -8.997185 -4.583873 24.340607 7.233060 -7.691955 5.154101 -1.451661 -6.539385 1.734177 -0.066500 0.584240 0.487380 -3.160045 -3.515982 -7.785030 -4.161551 -2.589578 51.057698 -4.892946 -1.082389 14.358946 0.913075 -7.178265 -13.222650 -18.512135 13.042245 42.421838 0.276050 6.564960 -17.978090 12.861096 -11.476124 6.238983 16.157148 5.760081 -10.182298 118.409110 4.827214 -2.568018 -4.509140 3.068686 0.697180 0.045560 0.355950 0.095370 -14.373053 17.056930 6.920105 -24.298363 -12.762442 -12.301592 -115.447923 1.027595 -8.552830 2.890259 -1.696082 -0.260940 0.521410 0.486300 0.179090 
